<svg width="23" height="14" viewBox="0 0 23 14" fill="none" xmlns="http://www.w3.org/2000/svg">
<rect x="0.865969" width="12.0648" height="12.0648" rx="1.5" transform="matrix(0.865969 -0.500097 0.865969 0.500097 0.116067 6.96673)" stroke="black"/>
<path d="M9.19239 4.95498C8.85421 4.95498 8.58006 5.1133 8.58006 5.3086L8.58006 8.4912C8.58006 8.6865 8.85421 8.84483 9.19239 8.84483C9.53057 8.84483 9.80472 8.6865 9.80472 8.4912L9.80472 5.66223L14.7034 5.66223C15.0416 5.66223 15.3157 5.5039 15.3157 5.3086C15.3157 5.1133 15.0416 4.95498 14.7034 4.95498L9.19239 4.95498ZM14.5751 7.91704L9.62537 5.05856L8.7594 5.55865L13.7092 8.41713L14.5751 7.91704Z" fill="black"/>
</svg>
