<svg width="23" height="14" viewBox="0 0 23 14" fill="none" xmlns="http://www.w3.org/2000/svg">
<rect y="0.499967" width="12.0637" height="12.0637" rx="1.5" transform="matrix(0.866044 0.499967 -0.866044 0.499967 11.7467 0.25)" stroke="black"/>
<path d="M14.0474 5.30676C14.0474 5.11151 13.7732 4.95323 13.435 4.95323L7.92357 4.95323C7.58535 4.95323 7.31118 5.11151 7.31118 5.30676C7.31118 5.50201 7.58535 5.66029 7.92357 5.66029L12.8227 5.66029L12.8227 8.48853C12.8227 8.68378 13.0968 8.84206 13.435 8.84206C13.7732 8.84206 14.0474 8.68378 14.0474 8.48853L14.0474 5.30676ZM8.91831 8.41423L13.8681 5.55674L13.002 5.05677L8.05227 7.91426L8.91831 8.41423Z" fill="black"/>
</svg>
